<?xml version="1.0" encoding="utf-8"?>
<!-- Generator: Adobe Illustrator 18.1.1, SVG Export Plug-In . SVG Version: 6.00 Build 0)  -->
<!DOCTYPE svg PUBLIC "-//W3C//DTD SVG 1.1//EN" "http://www.w3.org/Graphics/SVG/1.1/DTD/svg11.dtd">
<svg version="1.1" id="Layer_1" xmlns="http://www.w3.org/2000/svg" xmlns:xlink="http://www.w3.org/1999/xlink" x="0px" y="0px"
	 viewBox="0 0 432 432" enable-background="new 0 0 432 432" xml:space="preserve">
<path fill="#FFFFFF" d="M544.7 189.9c2.5-1 5-1 7.6-1 4.2 0 7.3 2.1 10 4.7 1.9 1.9 3.3 4.3 4.4 6.9 1.3 3.2 1.9 6.6 2.5 9.9 0.6 3.4 0.7 6.8 1.4 10.2 0.2 0.7 0 1.5 0 2.2 0 2.5 0.5 5 0.5 7.5 0 2.2 0.5 4.4 0.6 6.7 0.1 3.3 0.2 6.6 0.1 9.9 -0.1 2-0.1 4.1 0.3 6.1 0.3 2.1 0.2 4.2 0.1 6.3 -0.1 3.6 0.5 7.1 0.5 10.7 0 2.6 0.6 5.2 0.3 7.8 -0.1 0.7 0.1 1.4 0.7 2.1h7.3c1.8 0 3.6 0 5.4 0.4 0.5 0.1 1 0.2 1.4 0.4 1 0.5 1.7 1 1.8 2.5 0.2 2.6 0.3 5.2 0 7.8 -0.2 1.4-0.5 1.8-1.8 1.8 -1.7 0-3.4 0.4-5-0.3 -0.3-0.1-0.8-0.1-1.1 0 -2.4 0.5-2.7 0.5-4.9-0.1 -0.5-0.1-1 0.1-1.5 0s-1-0.1-1.4-0.2c-0.3 0.3-0.3 0.7-0.2 1.1 0.4 2.9 0.7 5.7 0.5 8.7 -0.1 1.3 0.4 2.8 0.8 4.1 0.1 0.4 0.2 0.7 0.2 1.1 -0.2 2.8 0.7 5.5 0.8 8.2 0.1 3.6 0.9 7.2 1.2 10.8 0.2 2.7 1 5.2 1.6 7.8 1.1 4.6 2.4 9.2 4.1 13.6 1.3 3.3 3.3 6.1 5 9.1 0.6 1.1 1.4 2.2 2.1 3.3 1.9 2.7 4.4 4.8 7.8 5.4 0.7 0.1 1 0.9 1.7 0.9 0.4 1.9 0.7 3.6 0.5 5.5 -0.1 1.4-0.5 2-1.8 2.4 -0.7 0.2-1.3 0.4-2 0.4 -4.5 0-8.4-1.5-11.7-4.4 -6.4-5.5-10.6-12.4-13.2-20.3 -1.3-3.8-2.6-7.5-3.4-11.4 -1.1-5-2.4-9.9-3.1-14.9 -0.4-3-0.8-6-1-9.1 -0.2-3.3 0-6.8-1-10 -0.1-0.2 0-0.4 0-0.6 0.2-3.2-0.6-6.4-0.4-9.6 0.1-2 0-2.1-2-2.3 -3-0.3-6.1-0.5-9.1-0.3 -0.6 0.7-0.3 1.5-0.4 2.2 0 0.8-0.2 1.6-0.4 2.4 -0.3 1.2-0.2 2.5-0.4 3.8 -0.2 1.5-0.1 3 0 4.5 0.1 2.1-0.4 4.1-0.5 6.2 -0.1 1.2-0.2 2.5-0.3 3.7 0 4.8 0.1 9.5 0 14.3 -0.1 3.6 0.4 7.2 0.4 10.8 0 1.4-0.2 2.9-0.2 4.3 0 1.1-0.2 2.1-0.1 3.2 0.2 3.5-0.4 7-0.4 10.5 0 1.6 0.7 3.1 0.3 4.6 -0.3 1.2-0.3 2.5-0.3 3.7 0.1 1.7 0.1 3.4 0.3 5.1 0.1 0.8-0.5 1.7-1.4 2 -1.9 0.6-3.8 0.9-5.7 0.1 -1-0.4-2.1-0.5-3-0.9 -1.2-0.5-1.5-1.1-1.2-2.4 0.2-0.8 0.2-1.5 0.2-2.2v-10.5c0-1.1 0.2-2.3 0.2-3.4 0.1-2.2 0.3-4.5-0.1-6.7 -0.2-1 0.3-1.8 0.3-2.8 -0.1-3.9 0-7.8-0.1-11.7 -0.1-3.4-0.5-6.7-0.3-10.1 0.2-4.4 0.4-8.7 0.6-13.1 0.1-5.1 0.7-10.1 0.6-15.2 -0.1-1.9-0.1-1.9-2-2 -1.7-0.1-3.5-0.1-5.2 0.2 -0.3 0-0.6-0.1-0.9-0.1 -1.2-0.1-2.3-0.1-3.5 0.1 -2 0.3-4.1 0.3-6.2 0 -0.7-0.1-1.4-0.3-2.2 0 0 1.5-0.7 3-0.3 4.6 0.3 1.1 0 2.4-0.1 3.5 -0.1 1.6-0.1 3.3-0.1 4.9 -0.1 2 0 4-0.2 6 -0.3 1.9 0.2 3.8 0.1 5.7 -0.3 3.5-0.2 7-0.2 10.4 0 3.6-0.6 7.1-0.4 10.6 0 0.7 0 1.5 0.2 2.2 0.5 1.9-0.6 3.2-2.6 3 -1.4-0.1-2.6 0-4 0.3 -3 0.6-4-1.3-4-3.6 0-4.2 0-8.4 0.5-12.5 0.1-0.8-0.1-1.7-0.1-2.6 -0.1-7.4 0.4-14.8 0.5-22.2 0-4.5 0.5-9 0.8-13.5 0.2-2.8 0-5.7 0.3-8.4 0.6-5.1 0.1-10.1 0.6-15.2 0.2-2.1 0-4.3 0.1-6.4 0.2-5.4 0.4-10.9 0.6-16.3 0.1-3.2-0.1-6.4 0.3-9.5 0.3-2.6 0.1-5.3 0.6-7.9 0.3-2 0.2-4.1 0.4-6.2 0.3-2.4 0.7-4.7 0.5-7.1 0-0.6 0.3-1.2 0.3-1.8 0.5-4.6 1-9.3 1.6-13.9 0.2-1.9 0.6-3.8 1.2-5.6 0.3-1 1.1-1.6 2.1-1.6 2.2-0.2 4.3 0.2 6.5 0.7 0.5 0.1 0.7 0.4 0.9 0.8 1.3 2 1.2 4.2 1.1 6.4 -0.3 4.8-0.9 9.5-1.2 14.3 -0.2 3.8-0.7 7.7-1.1 11.5 -0.3 3.1-0.8 6.2-0.7 9.3 0.1 3.2-0.6 6.5-0.8 9.7 -0.3 4.6-0.5 9.2-0.8 13.8 -0.4 5.1-0.4 10.3-1.3 15.5 -0.4 2.3-0.1 4.8-0.1 7.1 0 0.8-0.6 1.7 0.4 2.5 6 0.5 12.1 0.5 18.2 0 0.4-0.3 0.5-0.6 0.5-0.9 -0.2-3.6 0.4-7.1 0.4-10.7 0-4.7 0-9.4 0.1-14.1 0-1.9 0.2-3.7 0.4-5.6 0.2-2.3 0.2-4.6 0.3-6.9 0.2-5.2 0.2-10.4 0.5-15.6 0.2-3.9 0.3-7.9 0.8-11.8 0.4-3.2 0.6-6.5 1-9.7 0.4-3 0.4-6 1-8.9 0.1-0.5 0-1.1 0-1.7C543.8 193.4 543.8 191.7 544.7 189.9L544.7 189.9zM561.6 279.9c-0.2-2.9-0.1-5.4-0.2-8 0-1.2 0-2.4-0.1-3.5 -0.4-4.7-0.4-9.5-0.5-14.2 -0.2-7.1-0.2-14.1-0.7-21.2 -0.3-4-0.5-8-0.8-12 -0.4-4.2-0.4-8.4-1.2-12.5 -0.5-2.6-0.7-5.3-1.8-7.8 -0.5-1.1-1-2.2-2.2-2.8 -0.5 0.7-0.3 1.3-0.3 1.9 -0.1 3.2-0.8 6.3-0.9 9.5 -0.1 2.2-0.4 4.4-0.5 6.5 -0.1 2.7-0.5 5.4-0.6 8 0 1.1 0.1 2.2-0.1 3.3 -0.4 1.7-0.5 3.5-0.5 5.2 0.2 4.7-0.4 9.4-0.5 14.1 0 2-0.3 4-0.2 6 0 0.3-0.1 0.6-0.1 0.9 -0.4 1.6 0.1 3.2 0 4.7 -0.1 0.8 0.2 1.6 0 2.4 -0.5 2.4 0.1 4.7-0.1 7.1 -0.2 2.6 0 5.2-0.1 7.8 0 1.6 0.3 3.1 0.5 4.7C554.2 280 557.8 280.1 561.6 279.9L561.6 279.9zM407.4 267.5c-2.9-0.9-5.8-0.6-8.7-0.5 -1.3 0.1-2.5 0.2-3.8 0 -0.7-0.1-1.1 0.2-1.2 0.8 -0.1 1.9-0.7 3.8-0.9 5.7 -0.2 2.6-0.8 5.2-1.2 7.7 -0.7 4.6-2.4 8.9-3.1 13.5 -0.7 4.4-2 8.6-2.9 12.9 -0.7 3.1-2 6-3 9 -1.9 5.1-4.3 10-6.5 15 -2.4 5.4-4.7 10.9-7.9 15.9 -0.7 1.2-1.6 2.2-2.5 3.3 -2.1 2.2-4 4.4-5.9 6.8 -1.7 2.2-3.9 3.9-6 5.5 -3.1 2.3-6.3 4.6-9.5 7 -1.4 1-2.7 2-4.4 2.4 -0.5 0.1-1.1 0.4-1.5 0.7 -1.9 1.4-4.7 0.3-5.8-1.6 -0.8-1.3-0.4-2.8-0.4-4.2 0-1 0.9-1.3 1.5-1.7 0.8-0.5 1.6-1 2.4-1.4 2.3-1.1 4.2-2.8 6-4.5 2.5-2.4 4.9-5 7.5-7.4 2.6-2.3 4.7-5.1 7.3-7.5 2.4-2.1 3.8-5.1 5.5-7.7 4.3-6.8 6.9-14.5 10-21.9 1.1-2.6 2.2-5.2 3-7.9 0.9-3.5 2.2-6.8 3.1-10.3 1.3-5.2 2.6-10.4 3.6-15.6 0.7-3.5 1.3-7 1.6-10.5 0.1-1.3 0.7-2.5 0.6-3.8 -0.2-0.3-0.5-0.5-0.8-0.5 -4.3 0.3-8.6 0.2-12.9 0.2 -0.6 0.9-0.3 1.9-0.4 2.7 -0.4 7-0.4 14-0.4 21.1v1.5c0.1 1.4-0.1 1.9-1.4 2.3 -1.7 0.5-3.5 0.8-5.3 0.1 -1.4-0.5-1.4-1.9-1.3-2.9 0.1-1.3-0.1-2.5-0.1-3.7v-18.5c0-0.8 0.5-1.6 0-2.5h-15.4c-0.4 0.4-0.3 0.7-0.3 1.1 0 2.2 0 4.4-0.2 6.6 -0.2 1.6 0.2 3.2 0.2 4.9 0.1 4.4 0.1 26.1-0.3 30.5 -0.1 1.3-0.1 2.6 0 4 0.1 1.8-0.1 3.5-0.6 5.2 -0.4 1.7 0 3.5-0.2 5.2 -0.3 2.8 0.4 5.5 0.4 8.2 0 1.8-0.1 3.6-0.3 5.3 -0.1 0.6-0.1 1.1 0 1.7 0.2 2.6-0.7 3.5-3.3 4.2 -1.6 0.4-3.1-0.1-4.6-0.1 -1 0-1.8-1-1.6-2.6 0.2-1.5-0.2-3-0.2-4.5 0.1-8.3 0-16.6 0.1-24.9 0-3.7 0.4-24.7 0.6-28.4 0-0.8 0.1-1.6 0.1-2.4v-13.6c0-5 0.5-9.9 0.7-14.8 0.1-3 0-6 0-9 0-6.1-0.2-12.2 0.2-18.2 0.3-4.7 0.3-9.3 0.1-14 -0.2-3.5 0-7-0.3-10.5 -0.2-2.3-0.1-4.6 0-6.9 0.1-1.1 0.1-2.2 1.3-2.6 0.2-0.1 0.3-0.2 0.4-0.4 0.6-1.2 1.7-2 2.9-1.8 1.5 0.2 3.1 0.6 4.5 1.1 0.8 0.3 1.2 0.8 1.2 1.7 0 2 0.2 3.9 0.3 5.9 0.1 1.3-0.3 2.6-0.3 3.9 0.1 3.1 0.8 6.1 0.5 9.1 -0.2 2.9-0.2 5.8-0.3 8.6 -0.1 2.2-0.3 4.5 0 6.8 0.4 3.3 0.4 6.8-0.1 10.1 -0.2 1.1-0.3 2.2 0.1 3.4 0.2 0.5 0.2 1.1 0.1 1.7 -0.7 4-0.2 8-0.4 12 0 0.9-0.2 1.7-0.3 2.8 2.7 0.5 5.3-0.5 7.9-0.1 2.5 0.4 5-0.5 7.5-0.1 0.4-1 0.3-1.8 0.3-2.6 0.1-4.8-0.1-9.7 0.2-14.5 0.2-3.5 0-7 0.3-10.5 0.3-3.1 0.1-6.3 0.4-9.4 0.4-4.1 0.6-8.1 0.7-12.2 0.1-2.7-0.1-5.4 0-8.1 0.1-2.9 0.4-5.7 0.5-8.6 0-0.7 0.5-1.2 1.2-1.5 2.1-0.9 3.9-0.2 5.7 0.7 1.3 0.7 1.2 2.1 1.2 3.3 0 3.6-0.5 7.2-0.6 10.9 -0.1 6.4-0.4 12.8-0.4 19.2 0 1.3-0.3 2.6-0.4 3.9 -0.3 3.8-0.5 7.6-0.4 11.4 0.1 3 0.2 6-0.2 9 -0.1 0.6 0.1 1.1 0.1 1.7 -0.1 1.4 0.2 2.8-0.2 4.3 -0.2 0.7-0.3 1.6 0.3 2.6 4.9-0.8 9.9 0.1 14.8-0.9 0.4-0.2 0.4-0.6 0.4-1 0.5-6.2 2.3-12.1 3.6-18.2 1.5-6.8 3.5-13.5 5.5-20.2 1.1-3.6 2.5-7.2 4.1-10.6 1.5-3.3 3.5-6.3 5.6-9.2 1.4-1.8 3-3.6 5.5-4 1.2-0.2 2.2-0.3 3.4 0.1 1.2 0.3 2.5 0.4 3.7 1 1.5 0.8 2.3 1.8 2.3 3.5 0 2.5 0.4 5 0.3 7.5 -0.2 5.4-0.3 10.7-0.4 16.1 -0.1 3.4-0.7 6.7-1 10v0.6c0.2 3.2-0.2 6.4-0.5 9.6 -0.4 4.3-0.1 8.5-0.3 12.8 -0.2 2.9-0.5 5.8-0.6 8.8 -0.1 3.3-0.4 6.6-0.7 9.9 -0.2 2.1-0.3 4.2-0.5 6.3 -0.5 7.1-0.2 14.2-0.9 21.3 -0.3 3.7 0 7.4-0.4 11.1 -0.4 4.5-0.4 9-0.7 13.5 -0.3 4.3-0.4 8.6-0.7 12.9 -0.2 3.8-0.1 7.5-0.4 11.3 -0.3 3.7-0.1 7.4-0.4 11.1 -0.4 3.9-0.2 7.8-0.3 11.6 0 1.2-0.5 1.9-1.5 2.3 -1.1 0.5-2.2 1.1-3.4 1 -1.4-0.1-3-0.1-4.3-0.8 -1.1-0.6-1.2-1.7-1.1-2.8 1-7.4 1.6-14.8 1.4-22.2 -0.1-3.3 0.2-6.6 0.7-9.9 0.1-0.7 0.1-1.4 0-2.1 -0.1-2.7 0.4-5.4 0.6-8 0.2-3.2 0.1-6.4 0.2-9.6 0.1-3.7 0.4-7.5 0.7-11.2 0.2-3 0.4-6.1 0.1-9.2 -0.1-1.2 0.3-2.4 0.3-3.5v-6c0.1-4.3 0.4-8.6 0.7-12.9C407.1 273 407.7 270.3 407.4 267.5L407.4 267.5zM410.4 203.6c-0.8 1.1-1.3 1.8-1.8 2.5 -2 3.1-3.3 6.5-4.5 10 -0.6 1.8-1.4 3.6-1.9 5.5 -1.1 4.4-1.8 8.9-2.8 13.3 -0.9 3.9-2.1 7.8-2.7 11.8 -0.5 2.7-1.3 5.3-1.4 8.3 3.9 0.1 7.7 0.1 11.4-0.3 1.7-0.2 1.8-0.4 1.8-2 0-4.3 0.4-8.6 0.7-12.9 0.4-6.1 0.4-12.2 0.8-18.4 0.3-4.8-0.2-9.6 0.7-14.4C410.9 206.1 411 205.1 410.4 203.6L410.4 203.6zM451.1 299.1c0-2.8-0.1-4.8 0-6.8 0.1-1.5-0.5-3-0.4-4.5 0.1-5.1 0.6-10.1 0.4-15.2 0-0.9 0.2-1.9 0.4-2.8 0.7-3.3 0.8-6.7 1.1-10 0.4-4.1 0.2-8.3 0.3-12.4 0.1-2.2 0.4-4.5 0.5-6.7 0.1-1 0.2-2 0.2-3 0-2.4 0.5-4.8 0.6-7.3 0.2-4.3 1.1-8.5 1.7-12.8 0.6-4.7 1.7-9.3 3.3-13.8 0.8-2.2 1.6-4.3 3-6.2 2.5-3.4 5.8-5.8 9.8-7.2 1-0.4 2-0.9 3.1-1.2 1.9-0.4 3.8-0.4 5.8-0.3 0.5 0 1 0.1 1.5 0.3 1.7 0.7 3.5 0.9 5.2 1.2 2.6 0.5 4.4 2.2 5.5 4.6 1.5 3.3 2.6 6.8 2.7 10.4 0.1 2.4 0.4 4.8-0.1 7.3 -0.3 1.6-0.1 3.2-0.1 4.9 -0.1 4.4-0.2 8.7-0.5 13.1 -0.3 4.3-0.2 8.6-0.3 12.9 -0.1 3.3 0.1 6.6-0.1 9.9 -0.2 5.2-0.3 10.3-0.3 15.5 0 1.5-0.4 3-0.3 4.5 0.1 2.8-0.4 5.6 0.2 8.4 0.2 0.9-0.2 1.9-0.4 2.8 -0.3 1.6-0.3 3.2-0.2 4.9 0.2 4.3-0.2 8.5-0.5 12.8 -0.4 6.2-0.7 12.3-0.7 18.5 0 2.2-0.5 4.5-0.8 6.7 -0.3 2.7-1 5.4-1.5 8 -0.6 3-1.6 5.9-3.8 8.2 -0.3 0.3-0.6 0.6-1 0.9 -3.2 2.1-6.4 4.1-10.2 5 -1.6 0.4-3.2 0.4-4.8-0.1 -2.1-0.5-4.1-1.1-6-2 -2.4-1.2-4.2-3.1-5.8-5.2 -2.6-3.4-4.4-7.3-5.5-11.4 -0.7-2.6-0.9-5.4-1-8.2 -0.1-3.2-0.1-6.5-0.6-9.7v-0.4C451.6 307.9 450.8 303.1 451.1 299.1L451.1 299.1zM484.6 232.4c0.4-3.8-0.4-8.3-0.5-12.8 0-1.7-0.1-3.5-0.1-5.2 -0.1-2.6-0.6-5.2-0.5-7.9 0.1-3-1.4-5.2-3.8-6.9 -1.8-1.3-5-1.2-6.5 0.3 -2.3 2.3-4 5-4.7 8.2 -0.1 0.4-0.2 0.8-0.4 1.3 -1.3 3.2-1.9 6.7-1.8 10.1 0.1 4.8-1.2 9.4-1.4 14.2 -0.1 3.8-0.7 7.7-0.9 11.6 -0.1 1.7-0.3 3.3-0.3 5 0.1 2.6 0 5.3-0.2 7.9 -0.2 3.6-0.3 7.2-0.7 10.8 -0.4 3.1-0.1 6.3-0.2 9.5 -0.1 3.7-0.1 7.5-0.2 11.2 0 1.4 0.3 2.7 0.1 4.1 -0.3 2.2 0.5 4.4 0 6.7 -0.1 0.2 0 0.5 0.1 0.7 0.3 0.7 0.2 1.4 0.1 2 -0.5 2.5-0.4 5.1-0.1 7.6s0.2 5.1 0.5 7.6c0.6 4.8 1.3 9.5 2 14.2 0.3 1.8 1.2 3.4 2 5 0.9 1.6 2.8 1.9 4.4 2.5 3.6 1.3 7.2-1.4 9-3.6 0.2-0.2 0.2-0.6 0.2-0.9 0.8-3.2 1-6.5 1.1-9.8 0.1-2.1-0.1-4.1-0.1-6.2 0-3.2 0.4-6.5 0.6-9.7 0.1-1.4-0.2-2.7 0-4.1 0.3-1.9 0.4-3.8 0.1-5.6s0.1-3.6 0-5.4c-0.1-0.8-0.4-1.6-0.2-2.5 0.8-3.3 0.3-6.6 0.6-9.9 0.5-5.1 0-10.2 0.4-15.4 0.3-5.4 0.6-10.9 0.8-16.3C484.3 244.7 484.7 238.9 484.6 232.4L484.6 232.4zM284.2 210.8c0.4-1.3 0.7-2.6 1.1-3.9 0.5-1.6 0.9-3.2 2.2-4.5 2.2-2.1 4.8-3.5 7.8-4.1 1.7-0.3 3.5-0.6 5.1 0.1 4.8 2 7.8 5.7 9.2 10.7 1.2 4.5 2 9.1 2.2 13.7 0.2 3.9 0.6 7.8 0.5 11.6 -0.1 3 0 6 0 9 0 0.6 0 1.1 0.1 1.7 0.4 2.7 0.5 5.5 0 8.2 -0.2 1.2-0.1 2.4 0.1 3.6 0.2 1 0.9 1.7 2 2 1.4 0.4 2.7 0.4 4.1 0.3 1.5-0.1 2.9-1.1 2.9-2.6 0-1.8 0.5-3.5 0.5-5.2 0-3 0.2-6.1 0.3-9.1 0.1-4.3 0.6-8.5 0.5-12.8 -0.1-2-0.4-4-0.3-5.9 0.1-2.2-0.3-4.3-0.6-6.3 -0.7-4-1.3-8.1-2.3-12.1 -1.1-4.2-2.7-8-6.2-10.7 -2.4-1.8-4.9-3.2-7.8-3.8 -3.5-0.7-7-1-10.5-0.5 -2.4 0.3-4.8 0.9-6.7 2 -2.9 1.7-5.7 3.7-7.8 6.5 -1.9 2.6-3.8 5.1-4.3 8.4 -0.1 0.9-0.3 1.9-0.8 2.6 -1.1 1.5-1 3.2-1.2 4.7 -0.5 4.8 0 9.7 0.8 14.4 0.7 4.2 1.6 8.3 2.8 12.4 1 3.3 1.7 6.6 2.5 10 1.3 5.2 3.1 10.3 4.6 15.4 2.2 7.2 4.5 14.4 6.8 21.6 1.7 5.3 3.9 10.5 5.2 16 1.6 6.5 3.9 12.9 5.4 19.5 1.2 5.4 2.3 10.8 3.3 16.3 0.9 4.5 1.7 8.9 1.2 13.5 -0.3 2.8-0.5 5.6-1.4 8.3 -0.9 2.6-2.9 3.9-5.4 4 -4.3 0.2-7.7-1.5-10.1-5.3 -2-3.2-3.1-6.7-3.7-10.3 -0.6-3.7-1.3-7.4-1.2-11.1 0-0.6 0-1.2-0.1-1.9 -0.5-4.5-0.4-8.9-0.3-13.4 0-4.6 0-9.1 0.4-13.7 0.1-1.5-0.6-2.5-1.8-3.2 -2-1.2-4.2-0.8-6.3-0.3 -0.6 0.1-1.3 0.7-1.3 1.5 -0.1 1.3-0.6 2.4-0.8 3.6 -0.5 3.7-1 7.4-1.1 11.2 0 3.3 0 6.7 0.1 10.1 0.2 4.4 0.5 8.7 1.3 13 0.5 2.8 0.9 5.7 1.9 8.4 1.5 4.3 3.2 8.5 5.9 12.3 1.4 1.9 2.9 3.5 4.8 4.6 3.6 2.2 7.6 3.2 11.8 2.7 2.2-0.3 4.3-0.7 6.3-1.6s3.5-2.4 4.9-4c2.1-2.3 3.5-5.2 4.9-8 1.3-2.6 1.7-5.3 1.8-8.1 0.2-4.4-0.3-8.7-1-13 -0.8-4.8-1.7-9.7-3.1-14.4 -0.3-1.1-0.4-2.2-0.7-3.3 -0.6-2-1.2-3.9-2-5.8 -0.9-2.2-1-4.6-1.6-6.9 -1.7-5.6-3.2-11.3-4.9-16.9 -1.3-4.3-2.8-8.5-4.6-12.6 -1.5-3.3-2.8-6.8-3.9-10.3 -0.8-2.7-1.7-5.3-2.4-8.1 -0.9-3.4-2.1-6.6-2.7-10.1 -0.3-1.5-0.2-3-0.9-4.4 -0.4-0.9-0.6-1.9-0.8-2.9 -0.5-2.3-1.1-4.6-1.9-6.8 -0.6-1.8-1.2-3.7-1.7-5.5 -1.2-3.9-1.9-7.9-1.6-11.9C283.5 216.5 283.3 213.6 284.2 210.8L284.2 210.8zM438.1 359.3c-0.2-5.1 0-10.2-0.3-15.4 -0.4-6.4-0.2-12.8-0.2-19.2 0-3 0.2-6 0.4-8.9 0.1-2.8 0.3-5.7 0.3-8.5 0-2.2-0.3-4.3-0.2-6.5 0.1-1.8 0.3-3.7 0.3-5.5 0-5 0.5-10.1 0.1-15.1 -0.1-1.3 0-2.6 0.4-3.9 0.1-0.5 0.2-1 0.2-1.5 -0.3-3 0.2-6 0.2-9.1 0-1.8 0.8-3.7 0.2-5.5 -0.1-0.4-0.1-1 0-1.5 0.4-1.8 0.3-3.7 0.3-5.5 0-2.4 0-4.9 0.2-7.3 0.4-4.5 0.6-8.9 0.6-13.4v-16.6c0-0.9 0-1.9 0.1-2.8 0.3-2.5 0.4-5 0-7.5 -0.1-0.5-0.2-1.2 0-1.7 0.4-1.4 0.2-2.7 0.3-4.1 0.1-1.9-0.1-3.9 0.4-5.8 0.4-1.5 0.1-1.9-1.5-2.6 -1-0.4-2.2-0.6-3.2-1.1 -1.5-0.7-2.9-0.5-4.3 0 -1 0.3-1.4 0.9-1.3 1.9 0.1 1.3 0.2 2.7 0 3.9 -0.5 3.3-0.7 6.7-0.7 10.1 0 1.9 0.1 3.8 0 5.6 -0.3 4-0.6 8.1-0.4 12.1 0 0.9 0.1 1.9-0.1 2.8 -0.3 2-0.5 4-0.6 5.9 -0.2 5.5 0 11-0.3 16.5 -0.4 6.5-0.3 13.1-0.3 19.7 0 4.1-0.1 8.2-0.1 12.3 0 5.3-0.1 10.6-0.4 15.9 -0.4 7.5 0.1 15-0.4 22.5 -0.3 4.2 0 8.4-0.4 12.5 -0.4 4-0.2 8.1-0.3 12.2 -0.1 1.5 0.4 3 0.1 4.5 -0.3 1.4-0.2 2.7-0.2 4.1v14.1c0 1 0.1 2 0.4 3 0.8 2.9 2.4 3.9 5.4 3.5 2.2-0.3 4.4-0.7 6.7-0.7 8.2 0.2 16.4 0 24.6 0.3 8.1 0.4 16.1 0.2 24.2 0.2 2.5 0 5 0.1 7.5-0.4 1.1-0.2 1.5-0.7 1.5-1.7v-4.9c0-1.9-0.9-3-2.8-3 -2.5 0-5-0.5-7.5-0.4 -2.4 0-4.8-0.2-7.3-0.3 -1.9-0.1-3.9-0.5-5.8-0.3s-3.7 0.2-5.6 0.2c-5.5 0.2-11 0.1-16.5 0.3 -4 0.1-8-0.3-12-0.3 -0.3 0-0.6-0.1-1.1-0.1C438.4 361.5 438.2 360.4 438.1 359.3L438.1 359.3zM117.5 296.2c0.2-3.4-0.5-6.6-0.7-9.9 -0.3-4.3-0.3-8.6-0.4-12.9 -0.2-8.6-0.3-17.2 0.3-25.7 0.1-1 0.2-2 0.1-3 -0.1-2.4 0.4-4.9 0.5-7.3 0.1-4.3 1-8.5 1.5-12.8 0.6-4.7 1.6-9.3 3.1-13.8 0.7-2.2 1.5-4.3 2.9-6.3 2.5-3.5 5.7-5.9 9.7-7.4 1-0.4 2-0.9 3.1-1.2 1.9-0.4 3.8-0.4 5.8-0.4 0.5 0 1 0.1 1.5 0.3 2.1 0.8 3.9 0.8 5.6 2.2 2.9 2.4 5.9 6.3 7 9.9 1.6 5 1 10.9 1 16.1 0 4.4-0.1 8.7-0.3 13.1 -0.2 4.3-0.1 8.6-0.2 12.9 -0.1 7 0.4 13.9 0.3 20.9 0 6.7 0.2 13.3 0.7 19.9 0.5 6.1 0.3 12.1 0.4 18.2 0 2.2-0.5 4.5-0.7 6.7 -0.3 2.7-0.9 5.4-1.4 8.1 -0.5 3-1.5 5.9-3.7 8.3 -0.3 0.3-0.6 0.7-1 0.9 -3.2 2.1-6.4 4.2-10.1 5.2 -1.6 0.4-3.2 0.4-4.8 0 -2.1-0.5-4.1-1-6-1.9 -2.5-1.2-4.3-3-5.9-5.1 -2.7-3.4-4.5-7.2-5.7-11.3 -0.7-2.6-1-5.4-1.1-8.1 -0.2-3.2-0.2-6.5-0.8-9.7v-0.4C118.1 296.8 117.2 300.2 117.5 296.2L117.5 296.2zM147.5 238.9c0.3-3.8-0.5-8.3-0.6-12.8 0-1.7-0.2-3.5-0.2-5.2 -0.1-2.6-0.7-5.2-0.6-7.9 0-3-1.5-5.2-3.9-6.9 -1.8-1.2-5.1-1.1-6.5 0.3 -2.2 2.3-3.9 5-4.5 8.2 -0.1 0.4-0.2 0.8-0.3 1.3 -1.3 3.3-1.8 6.7-1.6 10.1 0.2 4.8-1.1 9.4-1.2 14.2 -0.1 3.8-0.5 7.7-0.8 11.6 -0.1 1.7-0.3 3.4-0.2 5 0.5 10.7-0.3 21.4 0.1 32.1 0.4 10.9 3.1 21.4 5 32 0.3 1.8 1.2 3.4 2.1 5s2.8 1.9 4.4 2.5c3.6 1.3 7.2-1.5 8.9-3.7 0.2-0.2 0.1-0.6 0.2-0.9 0.7-3.2 0.9-6.5 1-9.8 0-2.1-0.2-4.1-0.2-6.2 0-3.2 0.3-6.5 0.4-9.7 0.1-1.4-0.3-2.7 0-4.1 0.3-1.9 0.3 4.5 0 2.6 -0.5-2.6 0-5.2-0.6-7.9 -0.7-2.9-0.6-5.5-0.6-8.5C147.8 266.5 147.9 252.7 147.5 238.9L147.5 238.9zM271.7 196.8c-0.2-0.4-0.7-0.7-1.2-0.6 -2.8 0.4-5.5 0.7-8.2 1.1 -4.2 0.6-8.1 1.9-11.9 3.9 -2.4 1.3-4.2 3.6-7.2 3.9 -0.6 0.1-1.3 0.8-1.5 1.7 -0.2 0.7-0.3 1.4-0.5 2.1 -0.7-0.3-0.7-0.7-0.8-1 -0.9-3.2-2.8-5.8-4.7-8.5 -1.8-2.6-4.7-3.9-6.8-6.1 -0.6-0.6-1.4-0.9-2.2-1.2 -1.5-0.6-2.1-0.2-2.6 1.2 -0.7 1.9-0.7 3.7 0.1 5.6 0.6 1.3 0.9 2.7 1.1 4.1 0.4 3.6 0.8 7.2 1.2 10.9 0.4 3.5 1.9 6.4 3.9 9.1 1.2 1.6 2.6 3.2 4.8 3.7 1 0.2 1.2 0.8 1.3 1.7 0.3 2.2 0.5 4.4 0.9 6.6 0.6 2.9 1.3 5.8 1.9 8.8 0.1 0.4 0.1 0.7-0.3 1.1 -0.9 0.1-1.8-0.6-2.7-0.8 -2.2-0.6-4.5-0.4-6.7-1.1 -1.4-0.4-2.7-0.8-4.1-1.1 -1.9-0.4-2.5 0.2-2.4 2.2 0.1 1.2 0.2 2.7 1.4 3.7 0.7 0.6 1.3 1.6 1.4 2.6 0.1 1.2 0.6 2.2 1.2 3.2 0.5 1 0.9 2.1 1.4 3.1 1.1 2.3 2.1 4.9 3.6 7 1 1.5 2.2 2.7 3.6 3.6 0.3 0.2 0.5 0.6 0.5 1v0.8c0 1.7 0.1 3.5 0.1 5.2 0.1 9 1.2 17.7 0.9 26.6 -0.4 13.2 0.2 26.3-1.4 39.5 -0.7 6.1-1 25.4-12.1 21.4 -1.6-0.6-3.5-0.9-4.4-2.5s-1.7-3.2-2-5c-0.8-4.7-1.4-9.5-2-14.2 -0.3-2.5-1.1-5.1-1.4-7.6s-1.1-5-0.7-7.6c0.1-0.6 0.2-1.4-0.1-2 -0.1-0.2-0.2-0.5-0.1-0.7 0.5-2.2-0.3-4.4 0-6.7 0.2-1.4-0.2-2.7-0.1-4.1 0.1-2.2 0-4.4 0-6.6 0-0.3 0.1-0.7 0-1v-0.1 -3.5c0.1-3.2 0.1-6.3 0.5-9.5 0.5-3.6-0.5-7.2-0.2-10.8v-0.6c0-1.3 0.1-2.6 0.1-3.9 0.1-3.3 0-32.7 0.1-36 0.1-4.3 0-8.6 0.3-12.9v-0.8c0.5-9 0.7-18.1 0.2-27.1 0-0.7-0.1-1.3-0.4-1.9 -0.6-1.1-2-1.4-3.2-1.6 -2-0.3-4-0.5-5.9-0.1 -0.6 0.1-1.8 0.3-2.1 0.8 -0.1 0.2 0 1.3 0 1.6 -0.1 1.3 0.2 2.6 0.3 3.9 0 1.7 0.1 5.1 0.1 6.9 0 4.5 0.8 16.1 0.5 20v0.1c0.1 6.7-0.3 38.4-0.5 44.2 -0.2 5.4-0.4 10.9-0.8 16.3 -0.3 5.1 0.1 10.3-0.4 15.4 -0.3 3.3 0.2 6.6-0.6 9.9 -0.2 0.9 0.1 1.7 0.2 2.5 0.1 1.8-0.3 3.6 0 5.4 0.3 1.9 0.2 3.7-0.1 5.6 -0.2 1.4 0.1 2.7 0 4.1 -0.2 3.2-0.5 6.5-0.6 9.7 0 2 0.1 4.1 0.1 6.2 -0.1 3.3-0.3 6.6-1.1 9.8 -0.1 0.3-0.1 0.7-0.2 0.9 -1.7 2.2-5.4 4.9-9 3.6 -1.6-0.6-3.5-0.9-4.4-2.5s-1.7-3.2-2-5c-0.8-4.7-1.4-9.5-2-14.2 -0.3-2.5-0.3-5.1-0.5-7.6 -0.3-2.5-0.3-5 0.1-7.6 0.1-0.6 0.2-1.4-0.1-2 -0.1-0.2-0.2-0.5-0.1-0.7 0.5-2.2-0.3-4.4 0-6.7 0.2-1.4-0.2-2.7-0.1-4.1 0.1-3.7 0.1-7.5 0.2-11.2 0.1-3.2-0.2-6.3 0.2-9.5 0.5-3.6 0.5-7.2 0.7-10.8 0.2-2.6 0.2-5.2 0.2-7.9 0-1.6 0.1-3.3 0.3-5 0.3-3.9 0.8-33.8 0.9-37.6 0.2-5.9 1.1-11.8 1.6-17.6 0.2-3 0.4-6 0.3-8.9 0-1.5-0.1-2.9-0.3-4.4 -0.1-1.1 0-2.5-1.1-3.2 -0.7-0.4-1.4-0.4-2.2-0.4 -1.6 0-3.2-0.1-4.8-0.1 -0.7 0-1.6 0-2 0.6 -0.2 0.2-0.2 0.5-0.2 0.8 -0.6 3.9-1 7.9-1.3 11.9 -0.4 6-0.4 12.1-0.7 18.1 -0.1 2.4-0.6 4.8-0.6 7.3 0 1-0.1 2-0.2 3 -0.2 2.2-0.5 30.5-0.5 32.8 -0.2 4.1 0.1 8.3-0.3 12.4 -0.3 3.4-0.4 6.7-1.1 10 -0.2 0.9-0.4 1.9-0.4 2.8 0.2 5.1-0.3 10.1-0.4 15.2 0 1.5 0.5 2.9 0.4 4.5 -0.1 2 0 4 0 6.8v0.1c-0.3 4 0.5 8.8 0.4 13.6v0.4c0.5 3.2 0.5 6.5 0.6 9.7 0.1 2.8 0.3 5.5 1 8.2 1.1 4.1 2.9 8 5.5 11.4 1.6 2.1 3.4 4 5.8 5.2 1.9 1 3.9 1.5 6 2 1.6 0.4 3.2 0.4 4.8 0.1 3.5-0.8 6.5-2.7 9.5-4.6 0.5-0.3 1.3-1 1.8-1.5 0.9-1 1.6-2.1 2.1-3.2 0.4-0.8 1.5-0.9 2-0.1l1.5 2.1c1.6 2.1 3.4 4 5.8 5.2 1.9 1 3.9 1.5 6 2 1.6 0.4 3.2 0.4 4.8 0.1 3.5-0.8 6.6-2.7 9.6-4.6 0.5-0.3 1.3-1 1.7-1.4 2.1-2.3 3.1-5.2 3.7-8.1 0.5-2.7 1.2-5.3 1.5-8 0.3-2.2 0.8-4.4 0.8-6.7 0-6.2 0.3-12.4 0.7-18.5 0.1-1.8 0.3-3.7 0.4-5.5 0-0.9 0-1.8 0.1-2.6 0.1-0.7 0.3-1.5 0.4-2.2 0.3-3.2 0.6-6.4 0.7-9.5 0.1-3-0.1-6.1 0.2-9 0.2-2.1 0.2-4.1 0.3-6.2 0.1-2 0.1-4 0.2-5.9 0.1-3.3 0.1-6.6 0.1-9.9 0-0.2 0.1-0.4 0.2-0.6s0.3-0.5 0.5-0.9c1.4-2.8 1.7-5.7 1.5-8.8 -0.3-3.4-0.6-6.9-1.2-10.3 -0.3-1.3 0.1-2.7 1.1-3.6 1.2-1.2 2.3-2.4 3.2-3.8 2-3 3.3-6.2 3.4-10 0-2.6-0.9-4.9-0.9-7.4 0-1.7-0.6-3-1.4-4.5 -0.2-0.5-0.8-0.7-1.3-0.6 -2.9 0.7-4.8 2.8-6.8 5 -0.7 0.8-1.9 0.3-2-0.7 -0.2-2.6-0.2-5 0-7.4s0.6-4.8 1.6-7.2c0.2-0.6 0.9-0.9 1.5-0.7 1.6 0.7 3.1 1.3 4.5 1.9 3.6 1.5 7.8 1.4 11.2-0.5 3.1-1.7 5.5-4.3 7-7.7 0.5-1.2 0.9-2.5 1.6-3.5C272.8 199.9 272.5 198.4 271.7 196.8L271.7 196.8zM236.7 218.1c0 1.1-1.5 1.6-2.1 0.7 -0.5-0.7-0.9-1.6-1.3-2.4 -2.1-4-2.2-8.5-3-12.8 -0.1-0.5-0.1-1 0.4-1.5C234.7 207.1 236.8 212.6 236.7 218.1L236.7 218.1zM234.5 251.1c-0.5-1 0.6-2.2 1.6-1.5 1 0.6 1.8 1.4 2.4 2.3 1.9 2.6 3.4 5.4 4.6 8.3 0.4 1.1-0.9 2-1.9 1.3C239.2 259.8 237 256 234.5 251.1L234.5 251.1zM250.8 234.6c0.1 2.3-0.3 5-1.1 7.1 -0.5 1.2-2.3 0.8-2.2-0.6 0.2-2.1 0.6-4.7 1-6.7C248.8 233.1 250.8 233.2 250.8 234.6zM263.5 207.3c-0.5 0.9-1.6 1.3-2.8 1.4 -2.1 0.2-3.9-0.5-5.8-1.2 -0.6-0.2-1.2-0.5-1.8-0.7 -1-0.4-1-1.9 0.1-2.2 0.7-0.2 1.5-0.3 2.1-0.6 1.6-0.8 3.5-0.6 5.2-1 1.2-0.3 2.3-0.6 3.5-0.6 0.8 0 1.4 0.8 1.1 1.6C264.7 205 264.1 206.2 263.5 207.3L263.5 207.3zM11.6 311.1v-0.8V311.1C11.5 311 11.5 311.1 11.6 311.1zM142.5 366.5c-0.8-0.5-1.6-1-2.4-1.4 -2.3-1.1-4.2-2.8-6-4.5 -2.5-2.4-4.9-5-7.5-7.4 -2.6-2.3-4.7-5.1-7.3-7.5 -2.4-2.1-3.8-5.1-5.5-7.7 -4.3-6.8-6.9-14.5-10-21.9 -1.1-2.6-2.2-5.2-3-7.9 -0.9-3.5-2.2-6.8-3.1-10.3 -1.3-5.2-2.6-10.4-3.6-15.6 -0.7-3.5-1.3-7-1.6-10.5 -0.1-1.3-0.7-2.5-0.6-3.8 0-0.1 0.1-0.2 0.2-0.2l-10.3 0.1c0.4 0.1 0.6 0.3 0.7 0.8 0.1 1.9 0.7 3.8 0.9 5.7 0.2 2.6 0.8 5.2 1.2 7.7 0.7 4.6 2.4 8.9 3.1 13.5 0.7 4.4 2 8.6 2.9 12.9 0.7 3.1 2 6 3 9 1.9 5.1 4.3 10 6.5 15 2.4 5.4 4.7 10.9 7.9 15.9 0.7 1.2 1.6 2.2 2.5 3.3 2.1 2.2 4 4.4 5.9 6.8 1.7 2.2 3.9 3.9 6 5.5 3.1 2.3 6.3 4.6 9.5 7 1.4 1 2.7 2 4.4 2.4 0.5 0.1 1.1 0.4 1.5 0.7 1.9 1.4 4.7 0.3 5.8-1.6 0.8-1.3 0.4-2.8 0.4-4.2C144 367.3 143.1 367 142.5 366.5L142.5 366.5zM78.1 272.4c2.3 0 4.6-0.3 6.9-0.7l3.4-1.5 7.4-3.4c1.6-1.2 3.2-2.5 4.4-4 1.4-1.7 3-3.4 4.4-5.2 0.7-0.9 1.2-1.9 1.7-3 0.7-1.5 1.4-3 1.8-4.6 0.5-1.8 0.5-3.8 0.5-5.7 -0.2-12-2.1-26.7-10.5-36 -2.6-2.9-5.8-5.2-9.3-6.9 -5.1-2.6-10.8-4-16.5-4.6 -1.7-0.2-3.7-0.1-5.4 0.3 -0.8-0.1-1.5 0-2.3 0.2 -1.2 0.3-2.5 0.4-3.7 1 -1.5 0.8-2.3 1.8-2.3 3.5 0 2.5-0.4 5-0.3 7.5 0.2 5.4 0.3 10.7 0.4 16.1 0.1 3.4 0.7 6.7 1 10v0.6c-0.2 3.2 0.2 6.4 0.5 9.6 0.4 4.3 0.1 8.5 0.3 12.8 0.1 1 0.2 2.1 0.2 3.1h-1.2c-1.8 0-3.7 0.1-5.5 0 -4.8-0.3-9.6-0.3-14.4-0.5 -1.8-0.1-3.2 0.1-4.9 0.3 -0.8 0.1-2.1-0.2-2.6 0.4 -0.6 0.6-0.5 2.5-0.5 3.3 -0.1 8.6 0.4 17.2 0.4 25.7v11.5c0 2.8 0 5.7-0.1 8.5 -0.1 1.8-0.5 3.6-0.6 5.4 -0.2 4 0.8 8 0 12 -0.2 1.4 0.1 2.7 0 4.1 -0.2 3.2-0.5 6.5-0.6 9.7 0 2 0.1 4.1 0.1 6.2 -0.1 3.3-0.3 6.6-1.1 9.8 -0.1 0.3-0.1 0.7-0.2 0.9 -1.7 2.2-5.4 4.9-9 3.6 -1.6-0.6-3.5-0.9-4.4-2.5s-1.7-3.2-2-5c-0.8-4.7-1.4-9.5-2-14.2 -0.3-2.5-0.3-5.1-0.5-7.6 -0.3-2.8-0.2-5.6-0.2-8.4 0-1.5 0-3.1 0.1-4.6 0-0.5 0.1-1.1 0.2-1.6 0.2-1-0.1-1.8-0.1-2.8 0-0.4 0.1-0.8 0.1-1.1 0.1-1.2-0.1-2.4-0.2-3.6 0 0.4 0 0.8-0.1 1.2 0-0.4 0.1-0.8 0.1-1.2 -0.1-0.8-0.1-1.5 0.1-2.3v1.5c0.5-7.9 1.2-15.7 1.8-23.6 0.3-3.2-0.2-6.3-0.3-9.4 -0.1-2.6 0.4-5.2 0.4-7.9 -0.1-6.9-0.1-13.8-0.2-20.7 0-3.4 1-6.3 1.4-9.6 0.4-3.8 1.3-7.5 1.2-11.3 -0.1-3.4 0.5-6.8 1.8-10.1 0.2-0.4 0.3-0.8 0.4-1.3 0.7-3.2 2.4-5.9 4.7-8.2 1.4-1.4 4.7-1.5 6.5-0.3 2.4 1.7 3.9 3.9 3.8 6.9 -0.1 3.6-0.5 7.2-0.4 10.8 0.1 1.5 0 3.4 0.9 4.7 1.3 1.9 6 1.4 8 1.2 0.7-0.1 1.5 0 2.2-0.2 1.1-0.4 0.9-0.9 1-2 0.2-1.9 0.7-3.6 0.7-5.6 0.1-3.3 0.1-6.6 0.1-9.9 -0.1-3.6-1.2-7.1-2.7-10.4 -1.1-2.4-2.9-4.2-5.5-4.6 -1.8-0.3-3.6-0.6-5.2-1.2 -0.5-0.2-1-0.3-1.5-0.3 -1.9 0-3.9-0.1-5.8 0.3 -1.1 0.2-2.1 0.8-3.1 1.2 -4 1.5-7.3 3.8-9.8 7.2 -1.4 1.9-2.2 4-3 6.2 -1.5 4.5-2.6 9.1-3.3 13.8 -0.8 5.8-1.1 11.5-1.8 17.4 -0.4 3.3-0.8 6.7-1.1 10 -0.4 5 0.1 9.9-0.2 14.9 -0.4 8-0.3 16.1-1.1 24 -0.7 6.6-1.4 13.3-1.4 19.9 0 5.2 0.1 10.4 0.3 15.7 0.1 2.5 0.2 5 0.2 7.5v0.4c0.5 3.2 0.5 6.5 0.6 9.7 0.1 2.8 0.3 5.5 1 8.2 1.1 4.1 2.9 8 5.5 11.4 1.6 2.1 3.4 4 5.8 5.2 1.9 0.9 3.9 1.5 6 2 1.6 0.4 3.2 0.4 4.8 0.1 3.8-0.9 7-2.9 10.2-5 0.4-0.2 0.7-0.6 1-0.9 2.2-2.3 3.2-5.3 3.8-8.2 0.5-2.7 1.2-5.3 1.5-8 0.3-2.2 0.8-4.4 0.8-6.7 0-6.2 0.3-12.4 0.7-18.5 0.3-4.2 0.7-1.3 0.5-5.5 -0.1-1.6 0-3.2 0.2-4.9 0.1-0.9 0.6-1.8 0.4-2.8 -1.1-5.6-1-11.7-1-17.5 -0.1-7-0.2-14-0.5-21.1h17.7 2c0.1 1.3 0.2 2.6 0.3 3.8 0.2 2.1 0.3 4.2 0.5 6.3 0.5 7.1 0.2 14.2 0.9 21.3 0.3 3.7 0 1.6 0.4 5.3 0.4 4.5 0.4 9 0.7 13.5 0.3 4.3 0.4 8.6 0.7 12.9 0.2 3.8 0.1 7.5 0.4 11.3 0.3 3.7 0.1 7.4 0.4 11.1 0.4 3.9 0.2 7.8 0.3 11.6 0 1.2 0.5 1.9 1.5 2.3 1.1 0.5 2.2 1.1 3.4 1 1.4-0.1 3-0.1 4.3-0.8 1.1-0.6 1.2-1.7 1.1-2.8 -1-7.4-1.6-14.8-1.4-22.2 0.1-3.3-0.2-6.6-0.7-9.9 -0.1-0.7-0.1-1.4 0-2.1 0.1-2.7-0.4-5.4-0.6-8 -0.2-3.2-0.1-6.4-0.2-9.6 -0.1-3.7-0.4-7.5-0.7-11.2 -0.2-3-0.4-0.3-0.1-3.4 0.1-1.2-0.3-2.4-0.3-3.5v-6c-0.1-4.3-0.4-8.6-0.7-12.9 -0.2-2.7-0.8-5.4-0.4-8.2C71.4 272.1 77.4 272.4 78.1 272.4L78.1 272.4zM70.1 260.9v-2.6c0-4.3-0.4-8.6-0.7-12.9 -0.4-6.1-0.4-12.2-0.8-18.4 -0.3-4.8 0.2-9.6-0.7-14.4 -0.1-0.7-0.4-1.7-0.1-2.4 0.4-0.8 1.5-0.9 2.4-1.1 2.7-0.4 5.8-0.2 8.5 0.5 2.8 0.8 5.3 2.4 7.4 4.4 2.1 1.9 4 4.2 5.8 6.5 0.6 0.7 1.2 1.5 1.6 2.3 1.8 2.9 1.6 6.2 2.4 9.4 0.9 3.5 0.8 7.3 0.6 10.9 -0.3 4.3-0.8 8.8-3.1 12.4v0.1c-1.5 0.4-6.4 5.1-10 5.1C82.3 260.6 70.1 261.8 70.1 260.9zM447.5 47.9c-1.3-2.6-3-4.6-5.2-6 -2.4-1.5-4.7-1.5-6.9 0 -1.3 0.9-2.6 1.7-4 2.5 -1.7 1.1-3.5 2.2-5.2 3.4l-0.3 0.2c-1.4 1-2.8 2-4.2 2.8 -3.1 1.7-6 3.6-8.6 5.3 -3.1 2-6.1 4.2-9.1 6.3 -1.9 1.4-3.9 2.7-5.8 4.1 -0.3 0.2-0.5 0.4-0.7 0.6 0.5-2.9 0.1-5.6-0.4-8.1 -1.1-5.2-4.3-8.9-9.8-11.1 -1.6-0.6-3.5-1.4-5.6-1.8l-0.1-0.3c-0.1-0.5-0.3-1-0.4-1.4 -0.3-1.1-0.7-2.2-1.6-3.2 -2-2.1-4.4-3.6-7.4-4.9 -3.4-1.4-7.1-2-11.1-1.7 -1.3 0.1-2-0.2-2.7-1.2 -1.4-2.2-3.6-3.4-5.3-4.3 -2.6-1.2-5.4-2.1-7.9-2.9 -1.8-0.6-3.9-1.1-6-0.9 -4.4 0.4-8 2-10.6 4.8l-0.3 0.3c-3.1 3.2-6.3 6.5-8.9 10.4 -0.8 1.1-1.5 2.3-2.3 3.4 -2.4 3.5-4.9 7.2-7.1 11 -0.3 0.5-0.5 0.9-0.7 1.4 -0.4 0.8-0.7 1.5-1.2 2.1 -1.1 1.5-1.9 3-2.6 4.7 -1.3-0.6-2.5-1.5-3.7-2.5 -0.5-0.4-1.1-0.8-1.6-1.2 -3.2-2.3-6.5-5-9.9-8.5 -0.6-0.6-1.2-1.3-1.9-1.9 -0.9-1-1.9-2-2.9-2.9 -4.8-4.4-9.9-7-15.4-7.8 -1.9-0.3-4.4-0.5-6.7 0.2 -3.3 1-6 2.7-8.3 5.1 -2.5 2.8-5.1 4.2-8.2 4.6 -0.7 0.1-1.2 0.6-1.4 0.9l-0.1 0.1c-0.8 1-0.6 2.1-0.4 2.9 0 0.2 0.1 0.3 0.1 0.5l0.1 0.5 0.5 0.1c4.8 1.1 9 3.9 13.1 8.9 3.9 4.7 6.6 10.2 9 15.5 1.9 4.1 3.7 8.7 5.5 14.6 1.4 4.5 3 9 4.6 13.3 0.5 1.5 1.1 3 1.6 4.4 1 2.9 2.3 5.8 3.5 8.5 0.4 0.9 0.8 1.8 1.2 2.8 2.2 5.3 5.9 9.7 11.5 13.8 0.2 0.2 0.5 0.3 0.7 0.5 1.1 0.7 1.6 1.1 1.5 2.2 -0.1 0.5 0.2 0.8 0.4 1.1 0 0.1 0.1 0.1 0.1 0.2 1.9 3.8 5.3 6.1 8.7 8 4.5 2.5 9.4 4 14 5.2 0.7 0.2 1.4 0.4 2.1 0.5 2.2 0.5 4.3 1 6.2 2.1 0.6 0.3 1.2 0.4 1.8 0.4s1.2-0.1 1.7-0.2c0.2 0 0.3-0.1 0.5-0.1 0.2-0.1 0.4-0.1 0.6-0.1 4.4 0.1 9.6 0 14.6-0.9 0.9-0.2 1.8-0.3 2.6-0.4 1.6-0.2 3.3-0.5 5-0.9 6.4-1.7 12-5.2 17.4-8.6l0.3-0.2c3.8-2.4 7.2-5.4 10.5-8.2 2.8-2.4 5-4.8 6.9-7.3l1.5-1.8c0.9-1 1.8-2 2.4-3.2l1-1.8c1.6-2.8 3.1-5.6 4.7-8.5 0.8-1.4 1.5-2.9 1.9-4.7 0.5-2.4 0.5-4.6-0.2-6.9 3.1-1.2 5.6-3.2 8-5.1l0.2-0.2c2.5-2 5.1-4 7.7-5.9 2.4-1.8 4.8-3.7 7.2-5.5 1.5-1.2 3-2.4 4.5-3.5 4-3.1 8.2-6.3 11.9-9.9 1.9-1.8 3.5-4.1 4.8-6.8C449.7 58.4 449.9 52.9 447.5 47.9L447.5 47.9zM396.6 94.1c-0.3-0.3-0.6-0.5-0.9-0.8l-0.2-0.1c-1.8-1.3-2.2-1.3-4 0 -0.3 0.2-0.7 0.5-0.9 1.2v0.2 0.2c0.3 1.3 1.3 2.1 2.2 2.8 2 1.6 2.4 3.4 1.3 6.3 -1.1 2.8-2.5 5.6-4.4 8.6l-0.5 0.8c-1.6 2.6-3.3 5.2-5.1 7.7 -3.2 4.3-7 8.4-11.2 12.1 -3.5 3.1-7.5 6-11.8 8.6 -3.7 2.3-7.7 4-11.8 5.1 -7.3 1.9-14.6 1.7-22.5-0.7 -0.8-0.2-1.5-0.4-2.3-0.5 -0.6-0.1-1.3-0.3-1.9-0.4 -3.9-1.1-7.5-3-11-4.8l-0.9-0.5c-0.9-0.5-1.6-1-2.1-1.6 0.3-2.7-0.7-4-2.8-5.2 -2.6-1.6-5.4-3.5-7.8-6.1 -2.7-3-4.2-6.4-5.8-10 -0.3-0.7-0.6-1.4-1-2.1 -1.4-3-2.4-6.2-3.4-9.4 -0.5-1.5-1-3.1-1.5-4.6s-1-3.1-1.5-4.6c-1.1-3.3-2.2-6.7-3.6-9.9 -1.3-3.1-2.6-6.3-3.5-9.7 -0.1-0.6-0.5-1.1-0.7-1.5 -0.1-0.2-0.2-0.3-0.3-0.5 -1-1.9-2.1-4-3.3-6.8 -1.4-3.1-2.7-5.9-4.6-8.2 -2.8-3.3-5.6-5.8-8.5-7.5 -0.5-0.3-0.9-0.6-1.4-0.9 0 0-0.1 0-0.1-0.1 0.7-0.9 1.5-1.7 2.4-2.4 0.4-0.4 0.8-0.7 1.2-1.1 1.8-1.8 4-2.9 6.7-3.2 1.2-0.2 2 0 2.7 0.4 2.7 1.6 4.9 3.3 6.6 5.3 1.2 1.4 2.5 2.8 3.6 4.1 2.5 2.9 5.1 5.9 7.9 8.5 4.2 3.9 9.3 7.1 15.5 9.8l2.4 0.9c1.7 0.6 3.3 1.2 4.7 2.2 1 0.7 1.9 0.4 2.5 0.1 0.4-0.2 0.6-0.2 0.8-0.1l0.9 0.4 0.2-1c0.6-3 0.4-3.8-1.9-5.4 -0.6-0.4-1.2-0.9-1.8-1.4 0.5-2.6 1.7-5.1 3.6-7.5 0.8-1 1.4-2.1 2-3.4 1.3-2.8 3.2-5.3 5-7.7l0.7-0.9c1.9-2.5 4.4-5.9 6.8-9.3 0.9-1.2 1.8-2.1 2.8-2.9 0.1 0 0.1-0.1 0.2-0.1 0.2-0.1 0.5-0.3 0.7-0.6 1.1-1.7 2.8-2.3 4.7-3 0.6-0.2 1.2-0.5 1.8-0.7 0.1-0.1 0.4-0.2 0.9-0.1 3 0 5.7 0.8 7.8 2.3 2.3 1.6 2.8 4.3 2.9 6.3 0.1 3.6-1 6.9-2.1 10.5l-0.1 0.4c-1.4 4.6-3.3 9.2-5.1 13.6 -0.4 1-0.8 1.9-1.2 2.9 -0.7 1.7-1.3 3.6-1.9 5.3 -0.3 0.8-0.5 1.6-0.8 2.4 -0.6 1.7-0.6 1.7-2.5 1.8h-0.9c-0.7 0-1.4 0-2.2 0.2 -0.4 0.1-1.5-0.6-1.8-1.4 -0.5-1.5-0.8-2.7-0.9-3.9 -0.2-4 0.2-8.2 1.3-13.1 1.1-5 2.8-9.7 5.1-14 0.2-0.4 0.3-0.9 0.4-1.3 0.2-0.6 0.3-1 0.6-1.2l0.6-0.4 -0.4-0.9c-0.6-1.3-1.3-2.6-2.8-3.4L338 38l-0.4 0.2c-2.2 1.3-4.7 2.9-5.9 6 -0.3 0.7-0.5 1.4-0.8 2.1 -1 2.7-2.1 5.5-2.7 8.5 -0.1 0.6-0.2 1.3-0.5 1.9 -0.3-0.1-0.6-0.2-0.9-0.3 -0.5-0.2-0.9-0.3-1.1-0.5l-0.5-0.6 -0.6 0.4c-2.5 1.7-2.7 2.6-1.4 5l0.2 0.4c0.4 0.7 0.8 1.5 1.5 2 1.2 0.9 1.4 2.1 1.3 3.8 -0.2 3.2 0.3 6.2 0.8 8.8 0.3 1.7 1.4 2.8 2.3 3.8 2.2 2.2 5.2 3.6 9 4.2 1.6 0.2 3.2 0.1 5-0.1 2.2 3.6 2.8 7.2 2 11.2 -0.3 1.3-0.6 2.6-0.9 3.8l-0.6 2.4c-0.2 0.7-0.2 1.4-0.2 2.2 0.1 1.3 0.3 2.3 1 2.8 0.8 0.6 1.8 0.5 2.8 0.3 0.3 0 0.5-0.1 0.8-0.1 0.8-0.1 1.8-0.2 2.7-0.8 1.7-1.1 2.3-2.8 2.7-4.4 0.1-0.3 0.2-0.5 0.2-0.8 0.1-0.4 0.2-0.7 0.3-1.1 0.1-0.5 0.2-0.9 0.4-1.2 0.5-1.1 0.8-2.3 0.7-3.7v-2.1 -0.3c0.4 0 0.7-0.1 1.1-0.1 1.5-0.1 3-0.2 4.4-0.7 0.5 1.7 1.7 3.2 3.6 4.5 2.7 1.8 6.4 2.6 8.8 2.1 0.8-0.2 1.7-0.3 2.4-0.3 0.5 0 1.1-0.1 1.6-0.3 4.8-2.3 8.1-5.3 10.2-9.2 0.7-1.2 1.4-2.5 2.1-3.7 0.5-0.8 0.9-1.6 1.4-2.4 0.4-0.7 0.7-1.4 1.1-2.1l0.3-0.6c2.9 0 5-2 6.7-3.7l0.4-0.4c1.2-1.2 2.7-2.2 4.1-3.2l0.9-0.6c5.3-3.7 10.7-7.3 15.4-10.5 1.4-1 2.9-1.9 4.4-2.8 1.1-0.7 2.1-1.3 3.2-2 1.5-1 3-1.9 4.5-2.9 1.4-0.9 2.7-1.8 4.1-2.7 1-0.7 2.1-1.3 3.2-1.9 0.4-0.2 0.8-0.2 1-0.1 0.3 0.1 0.4 0.5 0.5 0.8 0.7 2.6 0.7 5.1-0.2 7.5 -1.7 4.9-5.2 8.6-8 11.3 -1.9 1.8-4 3.6-6 5.3 -1.4 1.2-2.9 2.4-4.3 3.7 -3.1 2.8-6.5 5.4-9.8 8 -0.7 0.6-1.4 1.1-2.1 1.7 -0.6 0.5-1.1 0.9-1.7 1.4 -2.6 2.1-5.3 4.2-8.2 5.9 -0.8 0.4-1.4 0.9-2.1 1.4 -0.2 0.1-0.4 0.3-0.6 0.4C397.6 95 397.1 94.6 396.6 94.1L396.6 94.1zM362 41.5c0.4-0.3 0.8-0.3 1.4-0.2 0.3 0 0.7 0.1 1 0.1 1.9-0.1 4.1-0.2 6.1 0.6 1 0.4 1.6 0.9 1.9 1.7 1.1 2.4 1.5 4.8 1.2 7.2 -0.6 5.1-3 9.4-5.5 14l-0.8 1.4c-3 5.4-5.2 10.4-6.8 15.3 -1 3-2.9 4.4-6.1 4.1 -0.7-0.1-0.8-0.2-0.8-0.4 -0.4-1.1-1-2.2-1.6-3.2 -0.7-1.3-1.4-2.5-1.8-3.8 -0.3-1-0.2-1.7 0.1-2.5 1.6-3.4 3.3-6.7 4.9-10.1l2.7-5.6c0.2-0.5 0.5-1 0.6-1.6 0.3-2.7 1.3-5.2 2.3-7.5 0.4-0.9 0.4-1.9 0.5-2.7v-0.7c0.1-0.7 0.2-1.4 0.4-2.1C361.9 44.1 362.2 42.8 362 41.5L362 41.5zM388.7 63.9c-1.1 6.9-4.5 13-7.9 18.7 -1.1 1.9-2.4 3.9-4.3 5.5s-3.8 2.6-5.8 3.1c-1.5 0.4-2.7-0.6-4-1.7 -0.4-0.3-0.8-0.7-1.2-1 0.4-0.9 0.8-1.7 1.2-2.6 1.1-2.4 2.1-4.6 3.2-6.8 0.3-0.6 0.6-1.3 0.9-1.9 1.5-3.1 3-6.2 4.9-9.2 0.5-0.8 1.1-1.7 1.7-2.5 0.6-0.9 1.3-1.8 1.9-2.8 1.9-3.2 2.6-6.6 3.2-10.4v-0.2l0.3 0.1c0.8 0.3 1.6 0.5 2.4 0.8 0.4 0.1 0.8 0.4 1.1 0.9C388.5 56.9 389.3 60.2 388.7 63.9L388.7 63.9zM241.8 53.6c-0.6-0.5-1.5-0.6-2.3 0.2 -0.7 0.7-2.4 3.7-2.5 4 -0.4 0.7-0.9 1.7-1.3 2.1l-0.6 0.9c-0.2 0.3-0.4 0.7-0.7 1.1 -0.9 1.2-1.9 2.5-3 3.9 -1.6 0.4-3.1 0.9-4.7 1.4 -1.5 0.5-3 0.9-4.4 1.5 -1.9 0.8-3.9 0.7-5.9 0.4 -4.7-0.8-9.3-1.6-14-2.3 -2.5-0.3-5.1-0.3-7.6-0.4 -2.1-0.1-4.2-0.1-6.3 0.4 -1.5 0.4-3 0.4-4.5 0.6 -0.1 0-0.2 0-0.5 0.1 0.6 0.2 1 0.3 1.4 0.4 1 0.5 2.1 0.8 3.1 1.4 3 2 6.1 3.9 9.4 5.2 2.9 1.1 5.8 1.9 8.9 2.3 2.5 0.3 5 0.5 7.5 0.8 1.4 0.2 2.7 0.7 3.7 1.7 0.7 0.7 0.6 1.4-0.2 1.9 -3.2 1.9-6.6 2.8-10.4 1.8 -1.3-0.3-2.5-0.8-3.7-1.2 -3.4-1.1-6.9-2.2-10.4-3.3 -1.9-0.6-3.7-1.3-5.5-1.8 -2.5-0.7-5-1.2-7.6-1.6 -0.9-0.2-1.9 0.2-2.8 0.2 -1.7 0-3.4-0.1-5.1 0 -1.8 0.1-3.7 0.4-5.5 0.7 -2 0.4-4 0.5-6 0.2 0 0-0.1 0-0.3 0.1 1.2 0.8 2.2 1.4 3.3 2.1 0.2 0.1 0.4 0.3 0.6 0.5 1.5 1.5 3 3.2 4.6 4.5 1.3 1 2.9 1.7 4.3 2.5 3 1.6 6.4 2.4 9.7 2.9 3.4 0.5 6.9 0.7 10.4 1 1.9 0.2 3.8 0.2 5.6 0.5 1.7 0.2 3.4 0.5 5.1 0.9 0.4 0.1 1 0.6 1 0.9 0 0.4-0.4 1-0.8 1.2 -2.2 1.2-4.5 1.7-7 1.4 -3.6-0.5-6.9-1.9-10.3-3.2 -1.5-0.6-3-1.4-4.5-1.9 -1.5-0.6-3.1-1.2-4.8-1 -0.2 0-0.4-0.1-0.6-0.2 -1.9-0.9-4-0.9-6.1-0.9 -1.1 0-2.2-0.3-3.3-0.2 -1.2 0-2.5 0.2-3.7 0.5 -1.5 0.4-3 0.7-4.5 0.5 -0.8-0.1-1.7 0-2.6 0.2l1.5 0.3c0.3 0.1 0.6 0.3 0.9 0.5 0.7 0.5 1.5 1 2.1 1.6 1.7 1.4 3.3 2.9 4.9 4.2 1.8 1.5 3.9 2.4 6.1 2.9 2.4 0.5 4.9 1 7.4 1.3 3.6 0.4 7.2 0.7 10.8 1 0.3 0 0.7 0.2 1 0.3 0.5 0.2 0.5 0.7 0 1 -2 0.9-4 1.2-6.2 0.9 -1.5-0.2-3-0.3-4.4-0.8 -2.9-1-6-1.5-9-1.8 -2.9-0.2-5.9-0.2-8.8 0.4 -0.6 0.1-1.2 0.5-1.8 0.5 -1.4 0-2.9-0.1-4.3-0.2 0.3 0.2 0.8 0.5 1.1 0.7 1.2 0.8 2.4 1.6 3.6 2.5 1.6 1.2 3.3 1.8 5.1 2.4 2.1 0.7 4.4 0.5 6.6 0.7 0.9 0.1 1.7 0.1 2.6 0.2 0.2 0 0.4 0.3 0.6 0.5 -0.2 0.2-0.4 0.5-0.7 0.5h-2.8c-1.7-0.1-3.4-0.4-5.1-0.4 -2.7 0-5.2 0.7-7.2 2.5 -1.4 1.3-2.6 2.8-3.6 4.4 -1 1.5-2 2.9-3.2 4.3 -0.7 0.8-1.7 1.3-2.6 2 -0.1 0.1-0.2 0.2-0.3 0.4 0.1-0.1 0.3-0.1 0.4-0.2 2.2-0.6 4.4-1.1 6.8-0.3 1.8 0.6 3.7 1 5.6 1.3 1.9 0.2 3.8-0.1 5.5-1.1 1.6-0.9 3.2-1.7 4.6-2.8 1.4-1 2.5-2.4 3.8-3.5 0.7-0.6 1.5-1.2 2.3-1.7 0.3-0.2 0.8-0.2 1 0s0.3 0.8 0.1 1c-0.7 1-1.4 1.9-2.2 2.8 -2.2 2.3-4.1 4.8-5.2 7.8 -0.6 1.6-0.8 3.3-1.2 5 -0.2 1.1-0.4 2.3-0.7 3.4 -0.1 0.3-0.1 0.6-0.2 1 0.7-0.8 1.3-1.7 2-2.3 1.1-1 2.4-1.8 3.5-2.7 1.2-1 2.4-2 3.5-3.1 1.6-1.7 3.1-3.4 4.5-5.3 1.3-1.7 2.2-3.6 3.3-5.4 1.4-2.2 2.7-4.4 4.2-6.5 0.8-1.2 1.7-2.4 3.1-3 0.4-0.1 0.9-0.2 1.2-0.1 0.2 0.2 0.3 0.8 0.2 1.2 -0.2 1.8-1.2 3.3-2 4.8 -1.4 2.6-2.8 5.2-4.3 7.8 -1.9 3.3-3.3 6.8-3.6 10.6 -0.1 1.4 0.3 2.8 0.3 4.1 0.1 1.8 0 3.6 0 5.3 0 0.6 0 1.3 0.1 2 0.2-0.4 0.3-0.8 0.5-1.3 0.6-1.5 1.4-2.7 2.6-3.8 1.4-1.3 2.9-2.6 4.1-4 0.9-1.1 1.5-2.4 2.3-3.6 0.6-0.9 1.3-1.7 1.7-2.6 0.9-1.8 1.7-3.6 2.3-5.5 0.7-2.1 1.1-4.2 1.6-6.3 0.5-2.2 1.1-4.4 1.4-6.6 0.4-2.7 1.2-5.2 2.3-7.6 0.6-1.4 1.7-2.7 2.5-4 0.4-0.6 0.9-1.2 1.4-1.8s1.2-0.5 1.5 0.2c0.4 0.8 0.7 1.8 0.7 2.7 0.2 2 0.4 3.9 0 5.9 -0.7 3.5-1.3 7.1-2 10.7 -0.3 1.6-0.7 3.2-0.7 4.9 -0.1 1.8 0.1 3.6 0.3 5.3 0.2 1.3 0.4 2.6 0.9 3.8 0.7 1.7 1.8 3.4 2.5 5.1 0.4 0.8 0.5 1.7 0.7 2.6 0.1 0.3 0.1 0.6 0.3 0.9 0.1-0.8 0.2-1.5 0.3-2.3 0.5-1.9 1-3.7 1.9-5.5 0.9-1.6 1.5-3.4 2.2-5.1 0.5-1.3 0.9-2.6 1.3-3.9 0.5-2 1-4.1 1.3-6.1 0.6-3.1 0.5-6.2 0-9.3 -0.3-1.6-0.2-3.2-0.4-4.8l-1.2-10.2c-0.2-1.8 0.4-3.3 1.3-4.7 0.6-1 2-0.8 2.9 0.3 1 1.3 1.3 2.8 1.4 4.4 0.2 3.1 0.3 6.1 0.7 9.2 0.4 3.2 1.2 6.3 1.9 9.4 0.3 1.4 0.9 2.8 1.3 4.3 0.1-0.2 0.3-0.5 0.4-0.7 0.9-2.1 2-4.1 2.7-6.3 0.6-1.8 0.8-3.8 1.1-5.7 0.2-1.6 0.2-3.3 0.3-5 0.1-3 0-6-0.6-8.9 -0.4-1.9-0.4-3.9-0.3-5.8 0-1.3-0.1-2.5-0.2-3.8 0-0.4 0.2-0.8 0.3-1.1l0.3-3c0.1-1.1 0.3-2.3 0.4-3.4 0-0.3 0.1-0.6 0.1-0.9h0.1c0.6-0.5 1.1-1 1.5-1.5 0.6-0.8 1.2-1.6 1.8-2.4l0.5-0.8c0.5-0.7 1-1.4 1.6-2.1 0.2-0.3 0.7-0.9 1.3-1.5 0.7-0.8 1.4-1.6 1.7-2C243.1 56.1 242.5 54.2 241.8 53.6L241.8 53.6z"/>
    </g>
  </switch>
  <i:pgf id="adobe_illustrator_pgf">
    
	SwNMuGc7lt1M7OST4W/0AkitUnLkeURamWcL3V3PeTP+/jD+YKfRsy2mQVfguWePPI7Rv57A9QSq
YsKCW4qk7XehU/biUxoaXzJny8j4eme/vY1OYWxVwo83ZA7smeToRh7v5wJuPmeCnAxD0fmIfokx
NJeZUrydC87K/KKOuZgwR7GyVRTfI/KjvJaXUfDms6GojwgFXrBemhZuK/FZT620I9nPruIVvasD
UJg+5D7xrPBZxadIChoqCX60VG/OfhLIrVJfrxTEo68hb46El4tOYfggBebuIfnMFllaQsfNs2Gv
lGrt1ZdRfjbbFwr0ToAy7nz4FMuOlz6hR0mXrNMUxcrk5YoyazZXYeZscRWycWMxibMmfrcQuM9R
EB+Xgruxf8nmHCiKGQnWZ7Ig67JrFR2mqfrBw5eXY41nlK6+9FQqw/0FiQu7x+cR+i5UB8kaXpWj
JC6HnQQqnqP2g8CjRqt5r/HVUe1o33tbib9J8NtcvgcXM1cYo1TnNRs2+map+W0xukPDChYpkXTR
l44pE8PdRuV4/mALh8pmH361UHvGgEG4TeJnLWx86yee+jNEQbOTeQfq9RYAFe14zdH9DdbtPvFH
Zzf3xqeLaNYxxTRgs5V3uN9hjn4TlXym0XyMYQ/aip7fS145k8/HZ/8dMmNbPYaAXhfDc7aEViW0
i7MfU6USCFyt+ThNJ0HjFbHvW3G0MJG1KMugUcupWE4Re56xwyhp8RXFAB2KHIipnhmHUgBntt3N
g8K4tZHrse5KnarxEf6yG47X1IIVsw+zXx05jjGiUdK14TxSJe2gwtGt0IQDkN+6G32cfJbJ/8yl
IR/ILxiYZybN5OCwO20zRRSdRs/WeD0tc7Z8HV61c8dcow2S8Ew2Xl0NPSv6ehQW3MsYLxlQZi6e
60mgqLzNG89btcGYxlNbURzkGxVGDVyx41lyBM/tZ1LPthRkI5i+okabrx7lz5Xg7PWWcSUwamLZ
ZF7WhgAY9jOfCxoQvRdeRhHcGZYCsJ3fH680fcl3RNFSJN5NZq6rNvIAfPOr5dqzg6lZPnr/Eh4x
fGX/0wTQuO9xCnAreI5Cbc3g9A6HHmMQ8rFHIXEd08hp5gpDhoNv7A6MW3DqHMyE3szqWXT0h0IQ
aOuCdpnbfZRxxxndNnG++sm/aOu44/AF6vIwe8U1pHTLjrucqoBte9cNfSR3zveHWlPnVewVJ6vP
4LEcc8WJQznVbsN3jDKhWp4FV6jQlUR6UiS6o50Go8D16o/D6QGaCaM5ofY+1/Pxs54m3J79CP1I
peG0yXotflbMaHXPG1Mb2Bq3Rxz7GDmGC2eHjmeyNxjfIzb0fnLmFMhClTra1zJ67dDBuz9jKxNF
vOMYiQFT8SyxYWNOWQ9vt1zNq5N4FuY5m3LpWSrikCIl603z4BN+SmGKfcSj6XJwKMYST7u6Ichi
+EgzbSHNmjdw4DGKaSLdOBN+x9X0TxfXOErUITtzDrYheqSbGAqV3rTYQOng6UomfsWh2wqTTRp1
DtpQ//gwJ3I37Tz22Oi2F7kWTWGLNrznckwivvBewaUhq3bu4ZNN13lZnd8OHw33l8z+KecojDJ5
9pTPpmhVPDouC16CXwiAOtApsByThy+rOv7Zwsy8aG/8SZStiDcXdrIfDxVxZmLtKj09KPD8tesk
ji02GSs721j1rldHUnyhP6n6YY+UZhjM2eq2BudqZ6beg9DLY3RYvPnMTZ7Pri45aPDuIexnvppf
HesVb1UOlyMeH3Kl7Ff2+KEgmbVu+LRkVLWZLVP3ZUG6HUoWEfM+Bu5ax3xJ8VpzmfLcr0Gi7JgN
vfNoWeFdyoTJtZxzDHsLzsTTx9IxpbUiwlF4HwtsoQ1ppAqrImlgYcjKpn6EgqqCXTP1XLbeMXrR
aXDZFp6DRNOACl9YG+1MRpiIiRlUnpTC+AYC1Z0C3r69NoQRm8bHVWEf4NooNyoDmruz7g1fYYXp
JryPGTPoFPD2K719Wahft6fe9DOCBEZDGxITAsOyzSTqSxAKNmOLQ2BoqVoKXcjqTOhiFyXeo+z+
r89kDQEPfcB1HZxpLyQBF/ZulfzsjRll5TAqCrVgAxgzxYZRMnbYUvAMBOIkiDNukaXhY1kg7Azr
Qna157MeMagBrzRatdmZIDnNHKXVnUDX4yKSubpC6DpZmG67TeyxIsTb7krNZ7Y8Tax5ezuSwXNF
PCusv3ul4LVhziRpZm2wst1CoK0TeCmwVlMCdX4w9SWdBqNEuDUhU7amNpg9h0M21k4ouDlWz80b
J+xr1IA70kD+rKEPQCSTCXf5XISr78QBhCDrp2PJNIgCfJ/dvvCerCx0yOdej06X6v8YpfMaXYhf
avRkI7r+/vqyMIRYLgEkwGyQaPAYkh7kZR7AAfjxO7ACOqrA//LfPv7wd3/1H//8l//jH7//8o9/
+qc//vlfP/+366fy+Vd/809/+fx3/+Vv/6+/+y//44///Mt//dd//uXff/6v1z/979d/H//tw336
Tzf+99//9WP8399/5M9/9+8///v/8/FvDOo//+qv//Sn/zlH/fHnX/74l1/+/q//9W9+/ec//fkv
v/z5GB3Dff31xx/+49+kv/tP//T3X3/811/+/B/+w8cf/vCf//gPv/zXP//xH//nL3/++Id/+eP/
+8vnH//pn/70l2vMf77+5fMf/vzLv/zlT3/+5fNf/sef/r/+y/Unm/wPf/hP//f/+fH/A6gwJCI=
	
  </i:pgf>
</svg>
